<svg width="35" height="23" viewBox="0 0 35 23" fill="none" xmlns="http://www.w3.org/2000/svg">
<g clip-path="url(#clip0_30_678)">
<path d="M17.0008 9.41737C16.9985 9.44772 16.9985 9.47819 17.0008 9.50854C17.504 11.021 18.2666 12.4345 19.2546 13.6862C19.971 14.5866 20.8418 15.3529 21.8264 15.9494C22.4397 16.3217 23.1033 16.6044 23.7969 16.7887L24.0141 16.8421L24.033 16.861C23.9991 16.9714 23.9386 17.0718 23.8567 17.1534C23.6919 17.3246 23.4877 17.453 23.2618 17.5274C22.9721 17.6308 22.6688 17.6911 22.3615 17.7066C22.1474 17.7066 21.9334 17.7223 21.7319 17.7286H21.6344C21.6784 17.7757 21.7099 17.8103 21.7445 17.8418C22.1611 18.2334 22.6292 18.5665 23.1359 18.8319C23.8561 19.2106 24.6266 19.4847 25.4244 19.6461C25.7675 19.7152 26.1106 19.7718 26.4537 19.8221C26.674 19.8504 26.8944 19.8598 27.1147 19.8724C27.3351 19.885 27.4767 19.8944 27.6562 19.8913C28.3128 19.8896 28.9655 19.7889 29.5921 19.5926C30.761 19.2215 31.7489 18.4278 32.3622 17.3671C32.779 16.6575 33.0658 15.8794 33.2089 15.0693C33.2771 14.6474 33.2919 14.2186 33.253 13.793C33.2214 13.2548 33.1371 12.7211 33.0012 12.1993C32.84 11.5614 32.559 10.9598 32.1733 10.4264C31.5836 9.63145 30.7281 9.07383 29.7621 8.85471C29.4416 8.77625 29.1131 8.7351 28.7831 8.73211C28.525 8.73211 28.2668 8.74783 28.0087 8.76355C27.5886 8.78897 27.1742 8.87363 26.7779 9.01502C26.3129 9.16923 25.8904 9.42972 25.544 9.77573C25.3264 9.99464 25.1542 10.2542 25.0372 10.5396C25.0001 10.6258 24.9829 10.7193 24.9868 10.8131C24.9868 10.9199 24.9868 11.0237 24.9868 11.1274C24.9868 11.1651 24.9868 11.2028 24.9868 11.25H25.1096C25.4401 11.25 25.7706 11.25 26.1011 11.25C26.2735 11.2503 26.4455 11.2682 26.6142 11.3034C26.8178 11.3453 27.0067 11.44 27.162 11.578C27.3172 11.7159 27.4334 11.8923 27.4988 12.0893C27.5859 12.314 27.6318 12.5525 27.6341 12.7934C27.6479 13.1227 27.6268 13.4525 27.5712 13.7773C27.5252 14.1328 27.3625 14.463 27.1084 14.7161C26.8543 14.9693 26.5233 15.1311 26.1672 15.1761C25.8507 15.2364 25.5252 15.2321 25.2104 15.1635C24.8955 15.0949 24.5978 14.9634 24.3352 14.7769C23.9813 14.5173 23.711 14.16 23.5577 13.749C23.4176 13.4012 23.3296 13.0348 23.2964 12.6614C23.2555 12.2622 23.2555 11.8598 23.2964 11.4606C23.3565 10.684 23.6681 9.94803 24.1841 9.36394C24.5616 8.94876 25.02 8.61502 25.5314 8.38319C26.2987 8.04119 27.1201 7.83586 27.9584 7.7765C28.3046 7.7765 28.6509 7.74507 28.994 7.7765C29.8699 7.79564 30.7342 7.98127 31.5406 8.32347C32.6516 8.80278 33.557 9.65904 34.0966 10.7408C34.4096 11.3561 34.6312 12.0137 34.7545 12.6928C34.877 13.3496 34.9214 14.0186 34.8867 14.6858C34.8505 15.7548 34.6618 16.8133 34.3264 17.8292C34.0583 18.6301 33.6466 19.3757 33.1114 20.0296C32.4124 20.8676 31.4984 21.5 30.4672 21.8591C30.005 22.0229 29.5272 22.1388 29.0412 22.2048C28.5831 22.2639 28.1208 22.2839 27.6593 22.2646C26.2105 22.2096 24.7962 21.8074 23.5357 21.0921C22.6113 20.5794 21.7476 19.9647 20.9607 19.2594C19.8166 18.2356 18.7798 17.0981 17.8664 15.8645C16.5805 14.1549 15.4611 12.3266 14.5234 10.4044C14.4521 10.2677 14.4163 10.1153 14.4195 9.96119C14.4195 9.61227 14.4195 9.26335 14.4195 8.91443C14.4195 8.87042 14.4195 8.82641 14.4195 8.77297H14.5612C14.9641 8.77297 15.3639 8.77297 15.7668 8.77297C15.992 8.77567 16.2151 8.73067 16.4215 8.64095C16.8694 8.45547 17.2496 8.13731 17.5107 7.72935C17.7674 7.33617 17.9499 6.89936 18.049 6.44055C18.1679 5.95212 18.2198 5.44981 18.2032 4.94742C18.1974 4.44304 18.0904 3.94493 17.8884 3.48258C17.7211 3.0846 17.455 2.73577 17.1152 2.46902C16.7753 2.20227 16.373 2.02641 15.9462 1.95803C15.8207 1.93392 15.6931 1.92233 15.5653 1.92345H8.53939C8.288 1.91275 8.03644 1.94031 7.79335 2.00518C7.55332 2.05964 7.33912 2.19436 7.18627 2.38702C7.03341 2.57968 6.95108 2.81872 6.95289 3.06451V15.8457C6.96208 16.5539 6.85576 17.2588 6.6381 17.9329C6.33739 18.8207 5.83909 19.6289 5.18066 20.2968C4.51266 20.9757 3.73606 21.5387 2.88275 21.9628C2.37857 22.2202 1.8517 22.4307 1.30883 22.5915C1.27175 22.6035 1.23387 22.6129 1.19549 22.6198L0.685547 21.7365L0.751658 21.705C1.41515 21.493 1.99392 21.0758 2.40427 20.5137C2.83018 19.9561 3.15024 19.3254 3.34862 18.6528C3.41472 18.4422 3.46195 18.2253 3.51231 18.0241C3.52653 17.9506 3.53287 17.8757 3.5312 17.8009C3.5312 14.8063 3.5312 11.8106 3.5312 8.81384C3.5312 6.97494 3.5312 5.13917 3.5312 3.30027C3.53683 3.08655 3.50377 2.87357 3.43362 2.67158C3.37683 2.51261 3.27967 2.37109 3.15165 2.26088C3.02363 2.15067 2.86915 2.07556 2.70332 2.0429C2.65516 2.03823 2.60666 2.03823 2.55851 2.0429H1.18921C1.15927 1.70722 1.15927 1.36954 1.18921 1.03386H1.26161H17.1172C17.6239 1.02629 18.1283 1.10385 18.6093 1.26333C19.1202 1.4266 19.5819 1.71535 19.952 2.10309C20.3222 2.49084 20.5889 2.96516 20.7278 3.48258C20.855 3.91804 20.9249 4.3682 20.9355 4.82169C20.9599 5.30924 20.9176 5.79783 20.8096 6.27395C20.5702 7.25922 19.956 8.11269 19.0972 8.65352C18.4977 9.04235 17.8268 9.30839 17.1235 9.43623C17.0858 9.39223 17.0511 9.4048 17.0008 9.41737Z" fill="white"/>
<path d="M8.38818 17.672V16.6724H8.51724C8.8635 16.6724 9.20975 16.6724 9.55287 16.6724C9.69488 16.6794 9.83546 16.6412 9.95428 16.5632C10.0731 16.4853 10.164 16.3716 10.2139 16.2386C10.2908 16.059 10.3284 15.865 10.3241 15.6697C10.3241 15.5439 10.3241 15.4213 10.3241 15.2987V3.74979C10.4154 3.7215 12.3356 3.71207 12.5276 3.74979C12.5296 3.77595 12.5296 3.80223 12.5276 3.82838C12.5276 3.87239 12.5276 3.91955 12.5276 3.96355V15.2359C12.5169 15.4652 12.5445 15.6946 12.6094 15.9149C12.6518 16.0465 12.7088 16.1731 12.7794 16.2921C12.8534 16.4105 12.9571 16.5077 13.0802 16.5738C13.2033 16.64 13.3416 16.6729 13.4814 16.6693C13.8654 16.6693 14.2463 16.6693 14.6303 16.6693H14.7499C14.78 17.0018 14.78 17.3364 14.7499 17.6689C14.709 17.6877 8.54872 17.6972 8.38818 17.672Z" fill="white"/>
</g>
<defs>
<clipPath id="clip0_30_678">
<rect width="34.2295" height="21.6393" fill="white" transform="translate(0.688477 0.983582)"/>
</clipPath>
</defs>
</svg>
