<svg width="19" height="21" viewBox="0 0 19 21" fill="none" xmlns="http://www.w3.org/2000/svg">
<rect x="0.5" y="1.97498" width="18" height="18" rx="3.5" stroke="#4D4D4D"/>
<path d="M10.5579 10.792H13.7419V11.928H10.5579V15.224H9.40588V11.928H6.22188V10.792H9.40588V7.48H10.5579V10.792Z" fill="#4D4D4D"/>
<path d="M10.5579 10.792H10.0579V11.292H10.5579V10.792ZM13.7419 10.792H14.2419V10.292H13.7419V10.792ZM13.7419 11.928V12.428H14.2419V11.928H13.7419ZM10.5579 11.928V11.428H10.0579V11.928H10.5579ZM10.5579 15.224V15.724H11.0579V15.224H10.5579ZM9.40588 15.224H8.90588V15.724H9.40588V15.224ZM9.40588 11.928H9.90588V11.428H9.40588V11.928ZM6.22187 11.928H5.72188V12.428H6.22187V11.928ZM6.22187 10.792V10.292H5.72188V10.792H6.22187ZM9.40588 10.792V11.292H9.90588V10.792H9.40588ZM9.40588 7.48V6.98H8.90588V7.48H9.40588ZM10.5579 7.48H11.0579V6.98H10.5579V7.48ZM10.5579 11.292H13.7419V10.292H10.5579V11.292ZM13.2419 10.792V11.928H14.2419V10.792H13.2419ZM13.7419 11.428H10.5579V12.428H13.7419V11.428ZM10.0579 11.928V15.224H11.0579V11.928H10.0579ZM10.5579 14.724H9.40588V15.724H10.5579V14.724ZM9.90588 15.224V11.928H8.90588V15.224H9.90588ZM9.40588 11.428H6.22187V12.428H9.40588V11.428ZM6.72187 11.928V10.792H5.72188V11.928H6.72187ZM6.22187 11.292H9.40588V10.292H6.22187V11.292ZM9.90588 10.792V7.48H8.90588V10.792H9.90588ZM9.40588 7.98H10.5579V6.98H9.40588V7.98ZM10.0579 7.48V10.792H11.0579V7.48H10.0579Z" fill="#4D4D4D"/>
</svg>
