<svg width="25" height="25" viewBox="0 0 25 25" fill="none" xmlns="http://www.w3.org/2000/svg">
<path d="M12.4999 0C5.63911 0 0.0559969 5.58333 0.000443513 12.4167C-0.0273332 15.75 1.25039 18.9147 3.61141 21.2778C5.94267 23.6667 9.08342 24.9722 12.4166 24.998H12.4999C19.3608 24.998 24.9439 19.4147 24.9994 12.5814C25.055 5.69445 19.4719 0.0555556 12.4999 0ZM18.5553 16.6667L17.9997 17.2222C17.0831 18.1389 16.3053 18.3631 15.0832 18C13.8054 17.6091 12.6666 16.9147 11.6389 16.0833C10.1687 14.8889 8.58145 13.3333 7.5557 11.7222C6.52796 10.0551 6.19464 8.30556 7.63903 6.86111L8.19456 6.30556C8.58344 5.91667 9.2223 5.91667 9.63895 6.30556L11.2758 7.94246C11.6647 8.33135 11.6647 8.97024 11.2758 9.3869L10.3036 10.3591L10.3309 10.3869C11.4188 12.0305 12.8265 13.4381 14.4701 14.5258L14.4974 14.5536L15.4701 13.5813C15.8589 13.1925 16.4973 13.1925 16.9145 13.5813L18.5513 15.2183C18.9679 15.6354 18.9679 16.2743 18.5513 16.6632L18.5553 16.6667Z" fill="black"/>
</svg>
