<svg width="23" height="22" viewBox="0 0 23 22" fill="none" xmlns="http://www.w3.org/2000/svg">
<path d="M3.56452 20.2823C3.29839 20.5645 2.95968 20.6774 2.62903 20.6774C2.30645 20.6774 1.95968 20.5645 1.70968 20.2984V20.2823C1.45968 20.0484 1.33065 19.7177 1.33065 19.371C1.33065 19.0565 1.45968 18.7097 1.70968 18.4597L9.43548 10.7419L11.2823 12.5806L3.56452 20.2823ZM7.87097 7.8871C7.68548 8.06452 7.45968 8.15323 7.24194 8.15323C7.01613 8.15323 6.79839 8.08064 6.6371 7.91935L6.60484 7.8871L5.8871 7.14516C5.70968 6.99194 5.6129 6.75806 5.6129 6.53226C5.6129 6.31452 5.69355 6.08871 5.85484 5.91935L5.8871 5.90323L10.2016 1.57258C10.371 1.39516 10.5968 1.33871 10.8306 1.33871C11.0484 1.33871 11.2823 1.39516 11.4597 1.57258L12.1855 2.31452C12.3548 2.48387 12.4355 2.70968 12.4355 2.94355C12.4355 3.16129 12.3548 3.37097 12.2177 3.54032L7.87097 7.8871ZM17.2097 9.19355L13.4919 12.9113L9.1129 8.51613L12.8226 4.79839L17.2097 9.19355ZM18.4516 9.83871C18.629 9.66935 18.8468 9.57258 19.0726 9.57258C19.3065 9.57258 19.5403 9.66935 19.7097 9.83871L20.4355 10.5645C20.6048 10.7419 20.6935 10.9597 20.6935 11.1935C20.6935 11.4032 20.6129 11.621 20.4677 11.7823L20.4355 11.8226L16.121 16.129C15.9516 16.3145 15.7097 16.3952 15.4839 16.3952C15.2742 16.3952 15.0484 16.3145 14.8871 16.1774L14.8629 16.129L14.129 15.4194C13.9597 15.2419 13.8871 15.0081 13.8871 14.7903C13.8871 14.5645 13.9516 14.3468 14.1048 14.1855L14.129 14.1613L18.4516 9.83871ZM12.6855 13.9839C12.5968 14.2339 12.5484 14.5161 12.5484 14.7903C12.5484 15.3548 12.75 15.9194 13.1935 16.3629L13.9194 17.0726L13.9597 17.121C14.3871 17.5242 14.9435 17.7339 15.4839 17.7339C16.0484 17.7339 16.621 17.5161 17.0484 17.0726L21.379 12.7742L21.4113 12.7258C21.8226 12.2984 22.0323 11.7339 22.0323 11.1935C22.0323 10.629 21.8065 10.0645 21.379 9.62097L20.6452 8.89516C20.2097 8.46774 19.6452 8.25 19.0726 8.25C18.7984 8.25 18.5323 8.29839 18.2823 8.37903L13.621 3.73387C13.7258 3.45968 13.7661 3.20968 13.7661 2.94355C13.7661 2.37903 13.5565 1.80645 13.129 1.37097L12.3871 0.629032C11.9677 0.217742 11.3952 0 10.8306 0C10.2661 0 9.69355 0.217742 9.25806 0.629032L4.93548 4.95968L4.89516 4.99194C4.49194 5.42742 4.29032 5.98387 4.29032 6.53226C4.29032 7.09677 4.50806 7.66935 4.93548 8.09677L5.66935 8.83065L5.70968 8.8629C6.1371 9.27419 6.68548 9.47581 7.24194 9.47581C7.50806 9.47581 7.77419 9.43548 8.02419 9.32258L8.49194 9.79032L0.782258 17.5242C0.258065 18.0161 0 18.7097 0 19.371C0 20.0645 0.258065 20.7419 0.782258 21.2258C1.28226 21.7661 1.95968 22 2.62903 22C3.31452 22 3.99194 21.7661 4.5 21.2258L12.2177 13.5242L12.6855 13.9839Z" fill="#989BA5"/>
</svg>
