<svg width="22" height="22" viewBox="0 0 22 22" fill="none" xmlns="http://www.w3.org/2000/svg">
<g clip-path="url(#clip0_13_1513)">
<path d="M11 22C4.93485 22 0 17.0652 0 11C0 4.93485 4.93485 0 11 0C17.0652 0 22 4.93485 22 11C22 17.0652 17.0652 22 11 22ZM11 1.59539C5.81438 1.59539 1.59377 5.81438 1.59377 11C1.59377 16.1856 5.81438 20.4046 11 20.4046C16.1856 20.4046 20.4062 16.1856 20.4062 11C20.4062 5.81438 16.1856 1.59539 11 1.59539Z" fill="#989BA5"/>
<path d="M11.2269 16.7082C11.1422 16.6758 11.0511 16.6236 11.0511 16.4024C11.0532 16.292 11.0688 16.1824 11.0976 16.0758L12.4872 9.33899C12.5188 9.17886 12.5346 9.01604 12.5346 8.85283C12.5346 8.41773 12.3997 8.08633 12.1352 7.86676C11.5417 7.3806 10.5037 7.475 8.77667 8.05879L8.60976 8.11388L8.54129 8.98288H8.83136C9.71008 8.98288 9.92237 9.05135 9.96572 9.07282C10.0249 9.10118 10.0569 9.1348 10.0569 9.23487C10.0562 9.29737 10.0494 9.35965 10.0366 9.42082C10.0184 9.51198 9.99853 9.61812 9.97787 9.73196L8.70496 15.9166C8.65135 16.1774 8.62152 16.4425 8.61583 16.7086C8.61583 17.2017 8.75722 17.5825 9.03555 17.8398C9.31387 18.097 9.68375 18.219 10.1468 18.219C10.6885 18.219 11.4165 18.0683 12.371 17.7595L12.5415 17.7044L12.61 16.8237H12.3207C11.6681 16.8237 11.3662 16.7605 11.2269 16.7082Z" fill="#989BA5"/>
<path d="M13.0564 4.15864C12.7939 3.90909 12.4568 3.78107 12.0554 3.78107C11.6393 3.78107 11.2856 3.918 11.0105 4.18619C10.7355 4.45439 10.5888 4.81981 10.5888 5.26829C10.5888 5.68071 10.7245 6.02304 10.9903 6.2884C11.256 6.55375 11.598 6.6915 12.0031 6.6915C12.1961 6.69555 12.3879 6.66 12.5666 6.58704C12.7453 6.51409 12.9072 6.40528 13.0423 6.26733C13.3185 5.98698 13.4587 5.62237 13.4587 5.18362C13.4587 4.7554 13.3238 4.41023 13.0572 4.15783L13.0564 4.15864Z" fill="#989BA5"/>
</g>
<defs>
<clipPath id="clip0_13_1513">
<rect width="22" height="22" fill="white"/>
</clipPath>
</defs>
</svg>
