<svg width="27" height="27" viewBox="0 0 27 27" fill="none" xmlns="http://www.w3.org/2000/svg">
<circle cx="13.5" cy="13.5" r="13.5" fill="#9C876B"/>
<g clip-path="url(#clip0_30_666)">
<path d="M18.5001 6H8.49991C7.83689 6 7.20103 6.26338 6.73221 6.73221C6.26338 7.20103 6 7.83689 6 8.49991V18.5001C5.99993 18.8284 6.06454 19.1535 6.19015 19.4568C6.31576 19.7602 6.4999 20.0358 6.73205 20.268C6.9642 20.5001 7.23982 20.6842 7.54315 20.8098C7.84649 20.9355 8.1716 21.0001 8.49991 21H18.5001C18.8284 21.0001 19.1535 20.9355 19.4568 20.8098C19.7602 20.6842 20.0358 20.5001 20.268 20.268C20.5001 20.0358 20.6842 19.7602 20.8098 19.4568C20.9355 19.1535 21.0001 18.8284 21 18.5001V8.49991C21 7.83689 20.7366 7.20103 20.2678 6.73221C19.799 6.26338 19.1631 6 18.5001 6V6ZM19.7502 18.5001C19.7502 18.6642 19.718 18.8268 19.6552 18.9785C19.5924 19.1301 19.5003 19.2679 19.3843 19.384C19.2682 19.5001 19.1304 19.5921 18.9787 19.6549C18.8271 19.7177 18.6645 19.75 18.5004 19.7499H8.49991C8.33576 19.75 8.17321 19.7177 8.02154 19.6549C7.86987 19.5921 7.73207 19.5001 7.616 19.384C7.49993 19.2679 7.40787 19.1301 7.34508 18.9785C7.2823 18.8268 7.25002 18.6642 7.25009 18.5001V8.49991C7.25002 8.33576 7.2823 8.17321 7.34508 8.02154C7.40787 7.86987 7.49993 7.73207 7.616 7.616C7.73207 7.49993 7.86987 7.40787 8.02154 7.34508C8.17321 7.2823 8.33576 7.25002 8.49991 7.25009H18.5001C18.6642 7.25002 18.8268 7.2823 18.9785 7.34508C19.1301 7.40787 19.2679 7.49993 19.384 7.616C19.5001 7.73207 19.5921 7.86987 19.6549 8.02154C19.7177 8.17321 19.75 8.33576 19.7499 8.49991L19.7502 18.5001Z" fill="white"/>
<path d="M13.5002 9.75C12.6326 9.75006 11.7919 10.0509 11.1213 10.6014C10.4507 11.1518 9.9917 11.9177 9.8225 12.7687C9.6533 13.6196 9.78438 14.5028 10.1934 15.268C10.6024 16.0331 11.2641 16.6327 12.0656 16.9646C12.8672 17.2966 13.7591 17.3404 14.5893 17.0885C15.4195 16.8366 16.1367 16.3046 16.6186 15.5832C17.1006 14.8618 17.3175 13.9956 17.2324 13.1322C17.1473 12.2688 16.7655 11.4617 16.152 10.8482C15.8038 10.5 15.3903 10.2238 14.9353 10.0354C14.4803 9.84693 13.9927 9.74996 13.5002 9.75V9.75ZM13.5002 15.9999C12.9219 15.9998 12.3614 15.7992 11.9144 15.4323C11.4673 15.0653 11.1614 14.5547 11.0486 13.9874C10.9358 13.4202 11.0232 12.8314 11.2959 12.3213C11.5686 11.8113 12.0097 11.4116 12.5441 11.1903C13.0785 10.969 13.673 10.9399 14.2265 11.1078C14.7799 11.2758 15.258 11.6304 15.5793 12.1113C15.9005 12.5922 16.0451 13.1697 15.9884 13.7453C15.9316 14.3208 15.6771 14.8589 15.2681 15.2679C15.0359 15.5 14.7603 15.6841 14.457 15.8097C14.1536 15.9353 13.8285 16 13.5002 15.9999V15.9999Z" fill="white"/>
<path d="M18.5 9.43741C18.5 9.62283 18.445 9.80408 18.342 9.95826C18.239 10.1124 18.0926 10.2326 17.9213 10.3035C17.75 10.3745 17.5615 10.3931 17.3796 10.3569C17.1977 10.3207 17.0307 10.2314 16.8996 10.1003C16.7685 9.96921 16.6792 9.80216 16.643 9.62031C16.6068 9.43845 16.6254 9.24995 16.6964 9.07864C16.7673 8.90734 16.8875 8.76092 17.0417 8.65791C17.1958 8.55489 17.3771 8.49991 17.5625 8.49991C17.8111 8.49991 18.0496 8.59868 18.2254 8.7745C18.4012 8.95031 18.5 9.18877 18.5 9.43741" fill="white"/>
</g>
<defs>
<clipPath id="clip0_30_666">
<rect width="15" height="15" fill="white" transform="translate(6 6)"/>
</clipPath>
</defs>
</svg>
