<svg width="25" height="25" viewBox="0 0 25 25" fill="none" xmlns="http://www.w3.org/2000/svg">
<g clip-path="url(#clip0_10_1247)">
<path d="M12.4999 25C15.3919 24.9998 18.1943 23.9969 20.4296 22.1621C22.665 20.3273 24.195 17.7742 24.759 14.9378C25.323 12.1014 24.8861 9.1572 23.5227 6.60683C22.1593 4.05647 19.9537 2.05774 17.2819 0.951214C14.61 -0.155315 11.6371 -0.301183 8.86978 0.538463C6.10242 1.37811 3.71182 3.15132 2.10528 5.55596C0.498747 7.9606 -0.224313 10.8479 0.0592997 13.7259C0.342913 16.6039 1.61565 19.2945 3.66066 21.3393C4.82148 22.5 6.19956 23.4207 7.71621 24.0488C9.23286 24.6769 10.8584 25.0001 12.4999 25ZM6.41512 8.97991C6.56329 8.6225 6.81735 8.31903 7.14314 8.11033C7.46893 7.90162 7.85082 7.79769 8.23744 7.8125H16.7374C17.1189 7.79625 17.4966 7.89415 17.8222 8.09368C18.1478 8.2932 18.4064 8.58529 18.5651 8.93259C18.597 8.97654 18.6178 9.0275 18.6259 9.08118C18.634 9.13486 18.6291 9.1897 18.6116 9.24109C18.5941 9.29249 18.5646 9.33893 18.5254 9.37652C18.4862 9.41412 18.4386 9.44176 18.3865 9.45714L12.7504 12.4C12.6792 12.4408 12.5985 12.4623 12.5165 12.4623C12.4344 12.4623 12.3537 12.4408 12.2825 12.4L6.57226 9.43259C6.52775 9.41874 6.48711 9.39463 6.45362 9.36221C6.42013 9.32979 6.39471 9.28996 6.37943 9.24592C6.36414 9.20188 6.3594 9.15487 6.3656 9.10866C6.3718 9.06246 6.38876 9.01836 6.41512 8.97991ZM6.78744 10.8549C8.56244 11.7835 10.3358 12.7085 12.1075 13.6299C12.2267 13.7006 12.3627 13.738 12.5013 13.738C12.6399 13.738 12.7759 13.7006 12.895 13.6299C14.6584 12.7052 16.4242 11.7885 18.1923 10.8799C18.2441 10.8511 18.2997 10.8299 18.3575 10.817C18.4046 10.8009 18.455 10.7969 18.504 10.8054C18.553 10.8138 18.5992 10.8344 18.6382 10.8653C18.6772 10.8961 18.7079 10.9363 18.7274 10.982C18.7469 11.0278 18.7547 11.0777 18.7499 11.1272V14.6598C18.7643 14.9651 18.7534 15.2711 18.7173 15.5746C18.6471 16.0285 18.4151 16.4418 18.0641 16.7382C17.7131 17.0346 17.2669 17.1942 16.8075 17.1875H8.23208C7.79855 17.1972 7.37437 17.0607 7.0279 16.7999C6.68144 16.5391 6.43287 16.1693 6.32226 15.75C6.27664 15.5872 6.25233 15.4191 6.24994 15.25V11.1674C6.24994 10.825 6.47003 10.6946 6.78566 10.8549H6.78744Z" fill="black"/>
</g>
<defs>
<clipPath id="clip0_10_1247">
<rect width="25" height="25" fill="white"/>
</clipPath>
</defs>
</svg>
