<svg width="18" height="20" viewBox="0 0 18 20" fill="none" xmlns="http://www.w3.org/2000/svg">
<path d="M1.5366 0C1.12995 0.00290937 0.740781 0.167732 0.453234 0.458827C0.165687 0.749922 0.00287391 1.1439 0 1.55556V18.4444C0.00287391 18.8561 0.165687 19.2501 0.453234 19.5412C0.740781 19.8323 1.12995 19.9971 1.5366 20H14.2684C14.675 19.997 15.0641 19.8321 15.3516 19.5411C15.6392 19.25 15.802 18.8561 15.805 18.4444V13.2984L17.9523 4.95794C18.153 4.17619 17.703 3.35437 16.93 3.13849L15.805 2.82103V1.55516C15.802 1.14357 15.6391 0.749695 15.3516 0.458686C15.0641 0.167676 14.675 0.00290814 14.2684 0H1.5366ZM1.5366 1.33333H14.2684C14.2977 1.33134 14.3271 1.33573 14.3547 1.34619C14.3822 1.35665 14.4072 1.37296 14.428 1.394C14.4488 1.41505 14.4649 1.44035 14.4752 1.46822C14.4855 1.49608 14.4899 1.52586 14.4879 1.55556V18.4444C14.4899 18.4741 14.4855 18.5039 14.4752 18.5318C14.4649 18.5596 14.4488 18.585 14.428 18.606C14.4072 18.627 14.3822 18.6433 14.3547 18.6538C14.3271 18.6643 14.2977 18.6687 14.2684 18.6667H1.5366C1.50726 18.6687 1.47784 18.6643 1.45032 18.6538C1.4228 18.6433 1.3978 18.627 1.37701 18.606C1.35622 18.585 1.34012 18.5596 1.32978 18.5318C1.31945 18.5039 1.31512 18.4741 1.31708 18.4444V1.55556C1.31512 1.52586 1.31945 1.49608 1.32978 1.46822C1.34012 1.44035 1.35622 1.41505 1.37701 1.394C1.3978 1.37296 1.4228 1.35665 1.45032 1.34619C1.47784 1.33573 1.50726 1.33134 1.5366 1.33333ZM3.00459 2.22222C2.84205 2.23936 2.69162 2.31711 2.58257 2.44034C2.47353 2.56356 2.41367 2.72345 2.41465 2.88889V5.55556C2.41465 5.6431 2.43168 5.72979 2.46478 5.81068C2.49787 5.89156 2.54638 5.96505 2.60753 6.02696C2.66868 6.08887 2.74128 6.13797 2.82118 6.17148C2.90108 6.20498 2.98671 6.22222 3.07319 6.22222H12.7318C12.8183 6.22222 12.9039 6.20498 12.9838 6.17148C13.0637 6.13797 13.1363 6.08887 13.1975 6.02696C13.2586 5.96505 13.3071 5.89156 13.3402 5.81068C13.3733 5.72979 13.3903 5.6431 13.3903 5.55556V2.88889C13.3903 2.80134 13.3733 2.71465 13.3402 2.63377C13.3071 2.55288 13.2586 2.47939 13.1975 2.41748C13.1363 2.35558 13.0637 2.30647 12.9838 2.27297C12.9039 2.23947 12.8183 2.22222 12.7318 2.22222H3.07319C3.05034 2.22103 3.02744 2.22103 3.00459 2.22222ZM3.73173 3.55556H12.0732V4.88889H3.73173V3.55556ZM15.805 4.20833L16.5733 4.42381H16.5799C16.6532 4.44405 16.7019 4.5246 16.676 4.625L15.805 8.02103V4.20833ZM3.00459 9.77778C2.82994 9.78699 2.66605 9.86606 2.54898 9.99759C2.43191 10.1291 2.37125 10.3024 2.38035 10.4792C2.38945 10.656 2.46755 10.8219 2.59749 10.9404C2.72742 11.0589 2.89854 11.1203 3.07319 11.1111H6.80492C6.97958 11.1111 7.14708 11.0409 7.27058 10.9158C7.39408 10.7908 7.46346 10.6213 7.46346 10.4444C7.46346 10.2676 7.39408 10.0981 7.27058 9.97304C7.14708 9.84802 6.97958 9.77778 6.80492 9.77778H3.07319C3.05034 9.77659 3.02744 9.77659 3.00459 9.77778ZM8.93146 9.77778C8.84498 9.78234 8.76023 9.8041 8.68206 9.84181C8.60388 9.87953 8.53382 9.93246 8.47585 9.99759C8.41788 10.0627 8.37316 10.1388 8.34422 10.2214C8.31529 10.304 8.30272 10.3916 8.30722 10.4792C8.31172 10.5667 8.33322 10.6525 8.37047 10.7316C8.40773 10.8108 8.46002 10.8817 8.52435 10.9404C8.58869 10.9991 8.66381 11.0444 8.74544 11.0737C8.82706 11.1029 8.91358 11.1157 9.00006 11.1111H12.7318C12.9064 11.1111 13.0739 11.0409 13.1975 10.9158C13.321 10.7908 13.3903 10.6213 13.3903 10.4444C13.3903 10.2676 13.321 10.0981 13.1975 9.97304C13.0739 9.84802 12.9064 9.77778 12.7318 9.77778H9.00006C8.97721 9.77659 8.95431 9.77659 8.93146 9.77778ZM3.00459 12C2.82994 12.0092 2.66605 12.0883 2.54898 12.2198C2.43191 12.3514 2.37125 12.5246 2.38035 12.7014C2.38945 12.8782 2.46755 13.0441 2.59749 13.1626C2.72742 13.2811 2.89854 13.3425 3.07319 13.3333H6.80492C6.97958 13.3333 7.14708 13.2631 7.27058 13.1381C7.39408 13.013 7.46346 12.8435 7.46346 12.6667C7.46346 12.4899 7.39408 12.3203 7.27058 12.1953C7.14708 12.0702 6.97958 12 6.80492 12H3.07319C3.05034 11.9988 3.02744 11.9988 3.00459 12ZM8.93146 12C8.84498 12.0046 8.76023 12.0263 8.68206 12.064C8.60388 12.1018 8.53382 12.1547 8.47585 12.2198C8.41788 12.2849 8.37316 12.361 8.34422 12.4436C8.31529 12.5263 8.30272 12.6138 8.30722 12.7014C8.31172 12.7889 8.33322 12.8747 8.37047 12.9539C8.40773 13.033 8.46002 13.1039 8.52435 13.1626C8.58869 13.2213 8.66381 13.2666 8.74544 13.2959C8.82706 13.3252 8.91358 13.3379 9.00006 13.3333H12.7318C12.9064 13.3333 13.0739 13.2631 13.1975 13.1381C13.321 13.013 13.3903 12.8435 13.3903 12.6667C13.3903 12.4899 13.321 12.3203 13.1975 12.1953C13.0739 12.0702 12.9064 12 12.7318 12H9.00006C8.97721 11.9988 8.95431 11.9988 8.93146 12ZM3.00459 14.2222C2.91811 14.2268 2.83337 14.2485 2.75519 14.2863C2.67702 14.324 2.60695 14.3769 2.54898 14.442C2.49101 14.5072 2.44629 14.5832 2.41735 14.6658C2.38842 14.7485 2.37585 14.8361 2.38035 14.9236C2.38486 15.0112 2.40635 15.097 2.44361 15.1761C2.48086 15.2552 2.53315 15.3262 2.59749 15.3848C2.66182 15.4435 2.73695 15.4888 2.81857 15.5181C2.90019 15.5474 2.98671 15.5601 3.07319 15.5556H12.7318C12.9064 15.5556 13.0739 15.4853 13.1975 15.3603C13.321 15.2353 13.3903 15.0657 13.3903 14.8889C13.3903 14.7121 13.321 14.5425 13.1975 14.4175C13.0739 14.2925 12.9064 14.2222 12.7318 14.2222H3.07319C3.05034 14.221 3.02744 14.221 3.00459 14.2222ZM3.00459 16.4444C2.82994 16.4537 2.66605 16.5327 2.54898 16.6643C2.43191 16.7958 2.37125 16.969 2.38035 17.1458C2.38945 17.3226 2.46755 17.4886 2.59749 17.6071C2.72742 17.7256 2.89854 17.787 3.07319 17.7778H12.7318C12.9064 17.7778 13.0739 17.7075 13.1975 17.5825C13.321 17.4575 13.3903 17.2879 13.3903 17.1111C13.3903 16.9343 13.321 16.7647 13.1975 16.6397C13.0739 16.5147 12.9064 16.4444 12.7318 16.4444H3.07319C3.05034 16.4433 3.02744 16.4433 3.00459 16.4444Z" fill="#989BA5"/>
</svg>
