<svg width="48" height="48" viewBox="0 0 48 48" fill="none" xmlns="http://www.w3.org/2000/svg">
<path d="M44.7 11.8681C43.7982 10.3349 42.73 8.90592 41.5147 7.60706L21.5357 27.5828L10.0082 16.0446C9.55658 16.8458 9.17101 17.6825 8.85536 18.5463C8.66358 19.0628 8.51358 19.5663 8.38179 20.0399C8.2553 20.5465 8.15517 21.0594 8.08179 21.5763L21.5357 35.0356L38.8265 17.7481L40.8118 15.7563C41.2364 16.6125 41.5915 17.5015 41.8736 18.4146C42.4469 20.2207 42.7361 22.105 42.7307 23.9999C42.7307 34.3328 34.3307 42.7317 23.9989 42.7317C13.6671 42.7317 5.26822 34.3317 5.26822 23.9999C5.26822 23.5081 5.28643 23.0281 5.32822 22.5417C5.40417 21.4606 5.57665 20.3885 5.84357 19.3381C6 18.7681 6.165 18.2046 6.37929 17.6528C7.39419 14.8302 9.07255 12.2929 11.273 10.2546C13.4734 8.2162 16.1315 6.73651 19.0233 5.94012C21.9151 5.14373 24.956 5.05396 27.8898 5.67838C30.8235 6.30281 33.5642 7.62313 35.8811 9.52813L39.6129 5.79635C35.2735 2.05208 29.7315 -0.00543786 24 -8.11194e-05C10.7636 -8.11194e-05 0 10.7635 0 23.9999C0 37.2363 10.7636 47.9999 24 47.9999C37.2365 47.9999 48 37.2363 48 23.9999C48.0044 20.6692 47.3109 17.3745 45.9643 14.3281C45.5909 13.4826 45.168 12.6597 44.6979 11.8638L44.7 11.8681Z" fill="#9C876B"/>
</svg>
