<svg width="22" height="20" viewBox="0 0 22 20" fill="none" xmlns="http://www.w3.org/2000/svg">
<path fill-rule="evenodd" clip-rule="evenodd" d="M10.6258 12.5128C13.4514 12.5128 15.754 9.7538 15.754 6.35892C15.754 2.96405 13.4514 0.205078 10.6258 0.205078C7.80012 0.205078 5.49756 2.96405 5.49756 6.35892C5.49756 9.7538 7.80525 12.5128 10.6258 12.5128ZM10.6258 1.74354C12.6104 1.74354 14.2155 3.79482 14.2155 6.35892C14.2155 8.92303 12.6104 10.9743 10.6258 10.9743C8.64115 10.9743 7.03602 8.92303 7.03602 6.35892C7.03602 3.79482 8.64115 1.74354 10.6258 1.74354Z" fill="#4D4D4D"/>
<path fill-rule="evenodd" clip-rule="evenodd" d="M15.3179 12C14.8931 11.9575 14.5143 12.2674 14.4718 12.6923C14.4293 13.1171 14.7392 13.4959 15.1641 13.5384C17.5497 13.8187 19.398 15.7575 19.5641 18.1538H1.68715C1.86894 15.7644 3.7092 13.8341 6.08715 13.5384C6.51199 13.4959 6.82194 13.1171 6.77946 12.6923C6.73698 12.2674 6.35814 11.9575 5.93331 12C5.8769 12 0.112793 12.6564 0.112793 18.9179C0.112793 19.3427 0.457189 19.6871 0.882024 19.6871H20.3692C20.794 19.6871 21.1384 19.3427 21.1384 18.9179C21.1384 12.6564 15.3743 12 15.3179 12Z" fill="#4D4D4D"/>
</svg>
