<svg width="26" height="26" viewBox="0 0 27 26" fill="none" xmlns="http://www.w3.org/2000/svg">
<path d="M26.9953 12.6751C26.8769 7.8566 24.0162 3.33408 19.6823 1.27243C17.4987 0.22991 15.0385 -0.208458 12.6343 0.0936188C10.2078 0.387973 7.91223 1.36493 6.00948 2.91301C2.0086 6.14228 0.321295 11.7073 1.76627 16.6565C1.93655 17.2328 2.14545 17.7967 2.39151 18.3444C1.73352 19.6208 1.07552 20.8961 0.417525 22.1702C0.31021 22.3736 0.208436 22.5745 0.101121 22.7804C-0.236946 23.4415 0.321295 24.2217 1.05486 24.0335L5.52833 22.8882C5.5908 22.873 5.65378 22.8567 5.71676 22.8404C7.76787 24.6109 10.3122 25.696 12.9995 25.9467C15.4713 26.1801 17.994 25.6446 20.177 24.4719C24.4318 22.1926 27.1233 17.5338 26.9953 12.6751ZM20.6078 18.1827C20.4778 18.3306 20.3312 18.4674 20.1957 18.6042L19.2208 19.5878C19.1866 19.647 19.1446 19.7013 19.0958 19.749C18.7911 20.0433 18.4264 20.2668 18.0272 20.404C17.2261 20.6888 16.3142 20.5977 15.5051 20.3928C14.512 20.1421 13.5583 19.6752 12.6892 19.128C10.5516 17.7794 8.75012 15.9523 7.42422 13.7883C6.88866 12.9055 6.42564 11.9377 6.19438 10.9236C6.00797 10.11 5.93492 9.19764 6.23368 8.40583C6.4594 7.81388 6.8544 7.40348 7.29172 6.96511C7.6978 6.55522 8.08725 6.0538 8.56689 5.72324C9.17148 5.30776 9.95493 5.42167 10.4744 5.9114C10.621 6.0482 10.756 6.19619 10.8971 6.33858C11.276 6.71643 11.679 7.08208 12.0317 7.48637C12.5678 8.10172 12.528 8.99015 11.9813 9.58261C11.8231 9.75907 11.6483 9.91876 11.4845 10.0835C11.3097 10.26 11.1349 10.4426 10.9545 10.619L10.9404 10.6322C10.9369 10.6394 10.9324 10.648 10.9263 10.6587C10.9204 10.6697 10.9138 10.6804 10.9067 10.6907L10.9036 10.7045C10.8926 10.7263 10.887 10.7701 10.8764 10.7985C10.8764 10.8713 10.8699 10.9445 10.8699 11.0177C10.8699 11.0564 10.8699 11.094 10.8749 11.1311C10.8749 11.1459 10.8779 11.1647 10.88 11.1891C10.88 11.1891 10.88 11.1927 10.88 11.1942C10.9026 11.2908 10.9193 11.3935 10.9475 11.4902C10.9757 11.5868 11.0155 11.6936 11.0482 11.7978C11.0593 11.8375 11.1213 11.9911 11.0593 11.8431C11.0775 11.8916 11.0982 11.9391 11.1213 11.9855C11.2399 12.2413 11.3756 12.4887 11.5274 12.7259C11.6629 12.9294 11.8297 13.176 11.9395 13.3016C12.3389 13.7872 12.7849 14.2316 13.2711 14.6284C13.4182 14.7423 13.6943 14.9361 13.9261 15.0785C14.1399 15.2094 14.3602 15.3292 14.5861 15.4375L14.6168 15.4523L14.6707 15.4716C14.7161 15.4884 14.767 15.5057 14.8118 15.5224C14.9247 15.5621 15.0375 15.596 15.1504 15.6242C15.1897 15.6353 15.235 15.6414 15.2799 15.6526C15.2854 15.6526 15.3358 15.6613 15.3721 15.6684C15.3993 15.672 15.4265 15.6755 15.4325 15.6755C15.4718 15.6802 15.5114 15.6821 15.5509 15.6811C15.6073 15.6811 15.6638 15.6755 15.7202 15.6755H15.7232C15.7519 15.6679 15.7857 15.6582 15.8159 15.6486L15.8331 15.6414L15.8507 15.6328C15.8673 15.6196 15.886 15.6048 15.895 15.5957C16.2447 15.231 16.5948 14.8496 16.9727 14.5135C17.5823 13.9724 18.4625 14.0182 19.0495 14.5643C19.1845 14.6894 19.309 14.8262 19.4384 14.9574C19.8108 15.3333 20.1942 15.6974 20.5559 16.0849C21.1005 16.6789 21.1363 17.5673 20.6063 18.1827H20.6078Z" fill="#28A825"/>
</svg>
